<?xml version="1.0" encoding="UTF-8"?> <svg xmlns="http://www.w3.org/2000/svg" width="1920" height="20" viewBox="0 0 1920 20" fill="none"><path d="M0 19V11M5 19V11M10 20V0M15 11V19M20 11V19M25 19V11M30 19V11M35 20V6M40 11V19M45 11V19M50 19V11M55 19V11M60 20V0M65 11V19M70 11V19M75 19V11M80 19V11M85 20V6M90 11V19M95 11V19M100 19V11M105 19V11M110 20V0M115 11V19M120 11V19M125 19V11M130 19V11M135 20V6M140 11V19M145 11V19M150 19V11M155 19V11M160 20V0M165 11V19M170 11V19M175 19V11M180 19V11M185 20V6M190 11V19M195 11V19M200 19V11M205 19V11M210 20V0M215 11V19M220 11V19M225 19V11M230 19V11M235 20V6M240 11V19M245 11V19M250 19V11M255 19V11M260 20V0M265 11V19M270 11V19M275 19V11M280 19V11M285 20V6M290 11V19M295 11V19M300 19V11M305 19V11M310 20V0M315 11V19M320 11V19M325 19V11M330 19V11M335 20V6M340 11V19M345 11V19M350 19V11M355 19V11M360 20V0M365 11V19M370 11V19M375 19V11M380 19V11M385 20V6M390 11V19M395 11V19M400 19V11M405 19V11M410 20V0M415 11V19M420 11V19M425 19V11M430 19V11M435 20V6M440 11V19M445 11V19M450 19V11M455 19V11M460 20V0M465 11V19M470 11V19M475 19V11M480 19V11M485 20V6M490 11V19M495 11V19M500 19V11M505 19V11M510 20V0M515 11V19M520 11V19M525 19V11M530 19V11M535 20V6M540 11V19M545 11V19M550 19V11M555 19V11M560 20V0M565 11V19M570 11V19M575 19V11M580 19V11M585 20V6M590 11V19M595 11V19M600 19V11M605 19V11M610 20V0M615 11V19M620 11V19M625 19V11M630 19V11M635 20V6M640 11V19M645 11V19M650 19V11M655 19V11M660 20V0M665 11V19M670 11V19M675 19V11M680 19V11M685 20V6M690 11V19M695 11V19M700 19V11M705 19V11M710 20V0M715 11V19M720 11V19M725 19V11M730 19V11M735 20V6M740 11V19M745 11V19M750 19V11M755 19V11M760 20V0M765 11V19M770 11V19M775 19V11M780 19V11M785 20V6M790 11V19M795 11V19M800 19V11M805 19V11M810 20V0M815 11V19M820 11V19M825 19V11M830 19V11M835 20V6M840 11V19M845 11V19M850 19V11M855 19V11M860 20V0M865 11V19M870 11V19M875 19V11M880 19V11M885 20V6M890 11V19M895 11V19M900 19V11M905 19V11M910 20V0M915 11V19M920 11V19M925 19V11M930 19V11M935 20V6M940 11V19M945 11V19M950 19V11M955 19V11M960 20V0M965 11V19M970 11V19M975 19V11M980 19V11M985 20V6M990 11V19M995 11V19M1000 19V11M1005 19V11M1010 20V0M1015 11V19M1020 11V19M1025 19V11M1030 19V11M1035 20V6M1040 11V19M1045 11V19M1050 19V11M1055 19V11M1060 20V0M1065 11V19M1070 11V19M1075 19V11M1080 19V11M1085 20V6M1090 11V19M1095 11V19M1100 19V11M1105 19V11M1110 20V0M1115 11V19M1120 11V19M1125 19V11M1130 19V11M1135 20V6M1140 11V19M1145 11V19M1150 19V11M1155 19V11M1160 20V0M1165 11V19M1170 11V19M1175 19V11M1180 19V11M1185 20V6M1190 11V19M1195 11V19M1200 19V11M1205 19V11M1210 20V0M1215 11V19M1220 11V19M1225 19V11M1230 19V11M1235 20V6M1240 11V19M1245 11V19M1250 19V11M1255 19V11M1260 20V0M1265 11V19M1270 11V19M1275 19V11M1280 19V11M1285 20V6M1290 11V19M1295 11V19M1300 19V11M1305 19V11M1310 20V0M1315 11V19M1320 11V19M1325 19V11M1330 19V11M1335 20V6M1340 11V19M1345 11V19M1350 19V11M1355 19V11M1360 20V0M1365 11V19M1370 11V19M1375 19V11M1380 19V11M1385 20V6M1390 11V19M1395 11V19M1400 19V11M1405 19V11M1410 20V0M1415 11V19M1420 11V19M1425 19V11M1430 19V11M1435 20V6M1440 11V19M1445 11V19M1450 19V11M1455 19V11M1460 20V0M1465 11V19M1470 11V19M1475 19V11M1480 19V11M1485 20V6M1490 11V19M1495 11V19M1500 19V11M1505 19V11M1510 20V0M1515 11V19M1520 11V19M1525 19V11M1530 19V11M1535 20V6M1540 11V19M1545 11V19M1550 19V11M1555 19V11M1560 20V0M1565 11V19M1570 11V19M1575 19V11M1580 19V11M1585 20V6M1590 11V19M1595 11V19M1600 19V11M1605 19V11M1610 20V0M1615 11V19M1620 11V19M1625 19V11M1630 19V11M1635 20V6M1640 11V19M1645 11V19M1650 19V11M1655 19V11M1660 20V0M1665 11V19M1670 11V19M1675 19V11M1680 19V11M1685 20V6M1690 11V19M1695 11V19M1700 19V11M1705 19V11M1710 20V0M1715 11V19M1720 11V19M1725 19V11M1730 19V11M1735 20V6M1740 11V19M1745 11V19M1750 19V11M1755 19V11M1760 20V0M1765 11V19M1770 11V19M1775 19V11M1780 19V11M1785 20V6M1790 11V19M1795 11V19M1800 19V11M1805 19V11M1810 20V0M1815 11V19M1820 11V19M1825 19V11M1830 19V11M1835 20V6M1840 11V19M1845 11V19M1850 19V11M1855 19V11M1860 20V0M1865 11V19M1870 11V19M1875 19V11M1880 19V11M1885 20V6M1890 11V19M1895 11V19M1900 19V11M1905 19V11M1910 20V0M1915 19V11M1920 19V11" stroke="white" stroke-opacity="0.3" stroke-width="2"></path></svg> 