<?xml version="1.0" encoding="UTF-8"?> <svg xmlns="http://www.w3.org/2000/svg" width="230" height="44" viewBox="0 0 230 44" fill="none"><path d="M37 33L19.5 0H17.5L0 33L1 35H15L15 24L12 21L13 14L15 12H16V18.5L17.5 20H19.5L21 18.5V12H22L24 14L25 21L22 24L22 35H36L37 33Z" fill="white"></path><path d="M22 37H15V42L17 44H20L22 42V37Z" fill="white"></path><path d="M72.3719 12.28H77.6919L71.8959 33H64.7559L60.6119 18.104L56.2999 33H49.1599L43.3779 12.28H49.0339L53.1499 27.918L57.6019 12.28H63.7619L68.0879 28.198L72.3719 12.28Z" fill="white"></path><path d="M87.8343 33.224C85.8556 33.224 84.1336 32.888 82.6683 32.216C81.2123 31.544 80.0876 30.5687 79.2943 29.29C78.5103 28.0114 78.1183 26.476 78.1183 24.684C78.1183 22.892 78.5103 21.3567 79.2943 20.078C80.0876 18.79 81.2123 17.81 82.6683 17.138C84.1336 16.4567 85.8556 16.116 87.8343 16.116C89.8223 16.116 91.5443 16.4567 93.0003 17.138C94.4656 17.81 95.5903 18.79 96.3743 20.078C97.1676 21.366 97.5643 22.9014 97.5643 24.684C97.5643 26.4574 97.1676 27.988 96.3743 29.276C95.5809 30.5547 94.4516 31.5347 92.9863 32.216C91.5303 32.888 89.8129 33.224 87.8343 33.224ZM87.8343 29.094C89.1596 29.094 90.1676 28.73 90.8583 28.002C91.5489 27.274 91.8943 26.1914 91.8943 24.754C91.8943 23.2514 91.5443 22.1267 90.8443 21.38C90.1536 20.624 89.1503 20.246 87.8343 20.246C86.5276 20.246 85.5243 20.61 84.8243 21.338C84.1336 22.0567 83.7883 23.1394 83.7883 24.586C83.7883 27.5914 85.1369 29.094 87.8343 29.094Z" fill="white"></path><path d="M109.217 33.224C107.238 33.224 105.516 32.888 104.051 32.216C102.595 31.544 101.47 30.5687 100.677 29.29C99.8931 28.0114 99.5011 26.476 99.5011 24.684C99.5011 22.892 99.8931 21.3567 100.677 20.078C101.47 18.79 102.595 17.81 104.051 17.138C105.516 16.4567 107.238 16.116 109.217 16.116C111.205 16.116 112.927 16.4567 114.383 17.138C115.848 17.81 116.973 18.79 117.757 20.078C118.55 21.366 118.947 22.9014 118.947 24.684C118.947 26.4574 118.55 27.988 117.757 29.276C116.964 30.5547 115.834 31.5347 114.369 32.216C112.913 32.888 111.196 33.224 109.217 33.224ZM109.217 29.094C110.542 29.094 111.55 28.73 112.241 28.002C112.932 27.274 113.277 26.1914 113.277 24.754C113.277 23.2514 112.927 22.1267 112.227 21.38C111.536 20.624 110.533 20.246 109.217 20.246C107.91 20.246 106.907 20.61 106.207 21.338C105.516 22.0567 105.171 23.1394 105.171 24.586C105.171 27.5914 106.52 29.094 109.217 29.094Z" fill="white"></path><path d="M127.66 33.182C126.708 33.182 125.7 33.154 124.636 33.098C123.581 33.0514 122.629 32.9814 121.78 32.888V16.844C122.723 16.6294 123.81 16.4614 125.042 16.34C126.274 16.2094 127.427 16.144 128.5 16.144C132.233 16.144 135.029 16.844 136.886 18.244C138.743 19.6347 139.672 21.7814 139.672 24.684C139.672 26.6814 139.229 28.3054 138.342 29.556C137.465 30.8067 136.144 31.726 134.38 32.314C132.616 32.8927 130.376 33.182 127.66 33.182ZM129.032 29.024C130.189 29.024 131.132 28.8794 131.86 28.59C132.597 28.2914 133.143 27.8247 133.498 27.19C133.853 26.546 134.03 25.6967 134.03 24.642C134.03 23.1114 133.615 22.0054 132.784 21.324C131.963 20.6427 130.698 20.302 128.99 20.302C128.458 20.302 127.912 20.3487 127.352 20.442V28.968C127.847 29.0054 128.407 29.024 129.032 29.024Z" fill="white"></path><path d="M157.753 16.34H164.431V33H159.321V22.822L155.695 30.508H151.271L147.645 23.27V33H142.535V16.34H149.213L153.553 25.286L157.753 16.34Z" fill="white"></path><path d="M180.628 33L179.466 29.304H173.124L171.962 33H166.572L172.256 16.34H180.39L186.074 33H180.628ZM174.356 25.384H178.234L176.302 19.182L174.356 25.384Z" fill="white"></path><path d="M198.769 33L194.849 27.484C194.307 27.4654 193.901 27.4467 193.631 27.428V33H188.171V16.844C189.141 16.6294 190.196 16.4567 191.335 16.326C192.483 16.186 193.584 16.116 194.639 16.116C197.485 16.116 199.623 16.5874 201.051 17.53C202.479 18.4634 203.193 19.8867 203.193 21.8C203.193 22.9014 202.927 23.8487 202.395 24.642C201.872 25.4354 201.116 26.07 200.127 26.546L204.845 33H198.769ZM193.631 23.76C194.331 23.8067 194.895 23.83 195.325 23.83C196.249 23.83 196.93 23.6714 197.369 23.354C197.807 23.0274 198.027 22.5094 198.027 21.8C198.027 21.0907 197.793 20.568 197.327 20.232C196.869 19.896 196.169 19.728 195.227 19.728C194.657 19.728 194.125 19.7794 193.631 19.882V23.76Z" fill="white"></path><path d="M209.621 33V20.526H203.937V16.34H220.891V20.526H215.207V33H209.621Z" fill="white"></path><path d="M223.612 33.266C222.539 33.266 221.69 32.9814 221.064 32.412C220.439 31.8427 220.126 31.068 220.126 30.088C220.126 29.0987 220.434 28.324 221.05 27.764C221.666 27.1947 222.52 26.91 223.612 26.91C224.695 26.91 225.544 27.1994 226.16 27.778C226.786 28.3474 227.098 29.1174 227.098 30.088C227.098 30.7227 226.954 31.2827 226.664 31.768C226.384 32.244 225.983 32.6127 225.46 32.874C224.938 33.1354 224.322 33.266 223.612 33.266Z" fill="white"></path></svg> 