<?xml version="1.0" encoding="UTF-8"?> <svg xmlns="http://www.w3.org/2000/svg" width="24" height="24" viewBox="0 0 24 24" fill="none"><g clip-path="url(#clip0)"><path d="M23.7428 18.201C22.8494 16.5121 19.7469 14.6808 19.6103 14.6007C19.2117 14.3738 18.7957 14.2537 18.4064 14.2537C17.8275 14.2537 17.3537 14.5189 17.0667 15.0011C16.6129 15.544 16.0501 16.1784 15.9135 16.2767C14.8563 16.994 14.0288 16.9125 13.1131 15.9969L8.00275 10.8861C7.09288 9.97619 7.00924 9.13841 7.72156 8.08706C7.82122 7.94957 8.45568 7.3863 8.99849 6.93204C9.34464 6.72604 9.58222 6.41993 9.68634 6.04442C9.82471 5.54477 9.72282 4.95703 9.39625 4.38441C9.31927 4.25271 7.48708 1.14983 5.79905 0.256867C5.48404 0.090021 5.129 0.00192642 4.77306 0.00192642C4.18665 0.00192642 3.63495 0.230617 3.22028 0.644839L2.09107 1.77361C0.305148 3.55908 -0.341324 5.58303 0.168557 7.78896C0.593903 9.62738 1.83346 11.5837 3.8534 13.6032L10.396 20.1458C12.9525 22.7023 15.3898 23.9988 17.6402 23.9988C17.6402 23.9988 17.6402 23.9988 17.6407 23.9988C19.2958 23.9988 20.8388 23.2954 22.2256 21.9086L23.3544 20.7798C24.0404 20.0942 24.1961 19.0575 23.7428 18.201Z" fill="#F5B332"></path></g><defs><clipPath id="clip0"><rect width="24" height="24" fill="white"></rect></clipPath></defs></svg> 