<?xml version="1.0" encoding="UTF-8"?> <svg xmlns="http://www.w3.org/2000/svg" width="1152" height="20" viewBox="0 0 1152 20" fill="none"><path d="M1 20V0M6 11V19M11 11V19M16 19V11M21 19V11M26 20V6M31 11V19M36 11V19M41 19V11M46 19V11M51 20V0M56 11V19M61 11V19M66 19V11M71 19V11M76 20V6M81 11V19M86 11V19M91 19V11M96 19V11M101 20V0M106 11V19M111 11V19M116 19V11M121 19V11M126 20V6M131 11V19M136 11V19M141 19V11M146 19V11M151 20V0M156 11V19M161 11V19M166 19V11M171 19V11M176 20V6M181 11V19M186 11V19M191 19V11M196 19V11M201 20V0M206 11V19M211 11V19M216 19V11M221 19V11M226 20V6M231 11V19M236 11V19M241 19V11M246 19V11M251 20V0M256 11V19M261 11V19M266 19V11M271 19V11M276 20V6M281 11V19M286 11V19M291 19V11M296 19V11M301 20V0M306 11V19M311 11V19M316 19V11M321 19V11M326 20V6M331 11V19M336 11V19M341 19V11M346 19V11M351 20V0M356 11V19M361 11V19M366 19V11M371 19V11M376 20V6M381 11V19M386 11V19M391 19V11M396 19V11M401 20V0M406 11V19M411 11V19M416 19V11M421 19V11M426 20V6M431 11V19M436 11V19M441 19V11M446 19V11M451 20V0M456 11V19M461 11V19M466 19V11M471 19V11M476 20V6M481 11V19M486 11V19M491 19V11M496 19V11M501 20V0M506 11V19M511 11V19M516 19V11M521 19V11M526 20V6M531 11V19M536 11V19M541 19V11M546 19V11M551 20V0M556 11V19M561 11V19M566 19V11M571 19V11M576 20V6M581 11V19M586 11V19M591 19V11M596 19V11M601 20V0M606 11V19M611 11V19M616 19V11M621 19V11M626 20V6M631 11V19M636 11V19M641 19V11M646 19V11M651 20V0M656 11V19M661 11V19M666 19V11M671 19V11M676 20V6M681 11V19M686 11V19M691 19V11M696 19V11M701 20V0M706 11V19M711 11V19M716 19V11M721 19V11M726 20V6M731 11V19M736 11V19M741 19V11M746 19V11M751 20V0M756 11V19M761 11V19M766 19V11M771 19V11M776 20V6M781 11V19M786 11V19M791 19V11M796 19V11M801 20V0M806 11V19M811 11V19M816 19V11M821 19V11M826 20V6M831 11V19M836 11V19M841 19V11M846 19V11M851 20V0M856 11V19M861 11V19M866 19V11M871 19V11M876 20V6M881 11V19M886 11V19M891 19V11M896 19V11M901 20V0M906 11V19M911 11V19M916 19V11M921 19V11M926 20V6M931 11V19M936 11V19M941 19V11M946 19V11M951 20V0M956 11V19M961 11V19M966 19V11M971 19V11M976 20V6M981 11V19M986 11V19M991 19V11M996 19V11M1001 20V0M1006 11V19M1011 11V19M1016 19V11M1021 19V11M1026 20V6M1031 11V19M1036 11V19M1041 19V11M1046 19V11M1051 20V0M1056 11V19M1061 11V19M1066 19V11M1071 19V11M1076 20V6M1081 11V19M1086 11V19M1091 19V11M1096 19V11M1101 20V0M1106 11V19M1111 11V19M1116 19V11M1121 19V11M1126 20V6M1131 11V19M1136 11V19M1141 19V11M1146 19V11M1151 20V0" stroke="white" stroke-opacity="0.3" stroke-width="2"></path></svg> 