<?xml version="1.0" encoding="UTF-8"?> <svg xmlns="http://www.w3.org/2000/svg" width="1920" height="20" viewBox="0 0 1920 20" fill="none"><path d="M0 1V9M5 1V9M10 0V20M15 9V1M20 9V1M25 1V9M30 1V9M35 0V14M40 9V1M45 9V1M50 1V9M55 1V9M60 0V20M65 9V1M70 9V1M75 1V9M80 1V9M85 0V14M90 9V1M95 9V1M100 1V9M105 1V9M110 0V20M115 9V1M120 9V1M125 1V9M130 1V9M135 0V14M140 9V1M145 9V1M150 1V9M155 1V9M160 0V20M165 9V1M170 9V1M175 1V9M180 1V9M185 0V14M190 9V1M195 9V1M200 1V9M205 1V9M210 0V20M215 9V1M220 9V1M225 1V9M230 1V9M235 0V14M240 9V1M245 9V1M250 1V9M255 1V9M260 0V20M265 9V1M270 9V1M275 1V9M280 1V9M285 0V14M290 9V1M295 9V1M300 1V9M305 1V9M310 0V20M315 9V1M320 9V1M325 1V9M330 1V9M335 0V14M340 9V1M345 9V1M350 1V9M355 1V9M360 0V20M365 9V1M370 9V1M375 1V9M380 1V9M385 0V14M390 9V1M395 9V1M400 1V9M405 1V9M410 0V20M415 9V1M420 9V1M425 1V9M430 1V9M435 0V14M440 9V1M445 9V1M450 1V9M455 1V9M460 0V20M465 9V1M470 9V1M475 1V9M480 1V9M485 0V14M490 9V1M495 9V1M500 1V9M505 1V9M510 0V20M515 9V1M520 9V1M525 1V9M530 1V9M535 0V14M540 9V1M545 9V1M550 1V9M555 1V9M560 0V20M565 9V1M570 9V1M575 1V9M580 1V9M585 0V14M590 9V1M595 9V1M600 1V9M605 1V9M610 0V20M615 9V1M620 9V1M625 1V9M630 1V9M635 0V14M640 9V1M645 9V1M650 1V9M655 1V9M660 0V20M665 9V1M670 9V1M675 1V9M680 1V9M685 0V14M690 9V1M695 9V1M700 1V9M705 1V9M710 0V20M715 9V1M720 9V1M725 1V9M730 1V9M735 0V14M740 9V1M745 9V1M750 1V9M755 1V9M760 0V20M765 9V1M770 9V1M775 1V9M780 1V9M785 0V14M790 9V1M795 9V1M800 1V9M805 1V9M810 0V20M815 9V1M820 9V1M825 1V9M830 1V9M835 0V14M840 9V1M845 9V1M850 1V9M855 1V9M860 0V20M865 9V1M870 9V1M875 1V9M880 1V9M885 0V14M890 9V1M895 9V1M900 1V9M905 1V9M910 0V20M915 9V1M920 9V1M925 1V9M930 1V9M935 0V14M940 9V1M945 9V1M950 1V9M955 1V9M960 0V20M965 9V1M970 9V1M975 1V9M980 1V9M985 0V14M990 9V1M995 9V1M1000 1V9M1005 1V9M1010 0V20M1015 9V1M1020 9V1M1025 1V9M1030 1V9M1035 0V14M1040 9V1M1045 9V1M1050 1V9M1055 1V9M1060 0V20M1065 9V1M1070 9V1M1075 1V9M1080 1V9M1085 0V14M1090 9V1M1095 9V1M1100 1V9M1105 1V9M1110 0V20M1115 9V1M1120 9V1M1125 1V9M1130 1V9M1135 0V14M1140 9V1M1145 9V1M1150 1V9M1155 1V9M1160 0V20M1165 9V1M1170 9V1M1175 1V9M1180 1V9M1185 0V14M1190 9V1M1195 9V1M1200 1V9M1205 1V9M1210 0V20M1215 9V1M1220 9V1M1225 1V9M1230 1V9M1235 0V14M1240 9V1M1245 9V1M1250 1V9M1255 1V9M1260 0V20M1265 9V1M1270 9V1M1275 1V9M1280 1V9M1285 0V14M1290 9V1M1295 9V1M1300 1V9M1305 1V9M1310 0V20M1315 9V1M1320 9V1M1325 1V9M1330 1V9M1335 0V14M1340 9V1M1345 9V1M1350 1V9M1355 1V9M1360 0V20M1365 9V1M1370 9V1M1375 1V9M1380 1V9M1385 0V14M1390 9V1M1395 9V1M1400 1V9M1405 1V9M1410 0V20M1415 9V1M1420 9V1M1425 1V9M1430 1V9M1435 0V14M1440 9V1M1445 9V1M1450 1V9M1455 1V9M1460 0V20M1465 9V1M1470 9V1M1475 1V9M1480 1V9M1485 0V14M1490 9V1M1495 9V1M1500 1V9M1505 1V9M1510 0V20M1515 9V1M1520 9V1M1525 1V9M1530 1V9M1535 0V14M1540 9V1M1545 9V1M1550 1V9M1555 1V9M1560 0V20M1565 9V1M1570 9V1M1575 1V9M1580 1V9M1585 0V14M1590 9V1M1595 9V1M1600 1V9M1605 1V9M1610 0V20M1615 9V1M1620 9V1M1625 1V9M1630 1V9M1635 0V14M1640 9V1M1645 9V1M1650 1V9M1655 1V9M1660 0V20M1665 9V1M1670 9V1M1675 1V9M1680 1V9M1685 0V14M1690 9V1M1695 9V1M1700 1V9M1705 1V9M1710 0V20M1715 9V1M1720 9V1M1725 1V9M1730 1V9M1735 0V14M1740 9V1M1745 9V1M1750 1V9M1755 1V9M1760 0V20M1765 9V1M1770 9V1M1775 1V9M1780 1V9M1785 0V14M1790 9V1M1795 9V1M1800 1V9M1805 1V9M1810 0V20M1815 9V1M1820 9V1M1825 1V9M1830 1V9M1835 0V14M1840 9V1M1845 9V1M1850 1V9M1855 1V9M1860 0V20M1865 9V1M1870 9V1M1875 1V9M1880 1V9M1885 0V14M1890 9V1M1895 9V1M1900 1V9M1905 1V9M1910 0V20M1915 9V1M1920 9V1" stroke="#101010" stroke-opacity="0.1" stroke-width="2"></path></svg> 