<?xml version="1.0" encoding="UTF-8"?> <svg xmlns="http://www.w3.org/2000/svg" width="230" height="44" viewBox="0 0 230 44" fill="none"><path d="M37 33L19.5 0H17.5L0 33L1 35H15V24L12 21L13 14L15 12H16V18.5L17.5 20H19.5L21 18.5V12H22L24 14L25 21L22 24V35H36L37 33Z" fill="#F5B332"></path><path d="M22 37H15V42L17 44H20L22 42V37Z" fill="#F5B332"></path><path d="M43.76 14.5H54.232V18.812H52.472V16.26H47.324V21.87H52.472V23.63H47.324V29.24H52.472V26.688H54.232V31H43.76V29.24H45.3V16.26H43.76V14.5ZM65.8423 16.7H70.7263V18.46H69.4063V28.58L67.1183 31H61.1343L58.8463 28.58V18.46H57.5263V16.7H62.4103V18.46H60.8703V27.942L61.9923 29.108H66.2383L67.3823 27.942V18.46H65.8423V16.7ZM74.0315 16.7H82.8315L85.1195 19.12V23.52L82.8975 25.852L84.9435 29.24H86.1095V31H82.1935V29.24H82.8095L80.8295 25.94H77.5955V29.24H78.9155V31H74.0315V29.24H75.5715V18.46H74.0315V16.7ZM77.5955 18.592V24.048H81.9515L83.2275 22.75V19.89L81.9735 18.592H77.5955ZM89.4143 16.7H94.7383V18.46H92.9783V29.24H97.7743V26.688H99.4463V31H89.4143V29.24H90.9543V18.46H89.4143V16.7ZM109.33 14.5H119.802V18.812H118.042V16.26H112.894V21.87H118.042V23.63H112.894V29.24H118.042V26.688H119.802V31H109.33V29.24H110.87V16.26H109.33V14.5ZM123.317 16.7H128.641V18.46H126.881V29.24H131.677V26.688H133.349V31H123.317V29.24H124.857V18.46H123.317V16.7ZM135.321 29.24H137.081V18.46H135.321V16.7H140.865V18.46H139.105V29.24H140.865V31H135.321V29.24ZM145.806 18.46V21.012H144.046V16.7H154.298V18.46L145.894 29.24H152.538V26.688H154.298V31H143.606V29.24L152.032 18.46H145.806ZM157.262 16.7H166.634L168.922 19.12V28.58L166.634 31H157.262V29.24H158.802V18.46H157.262V16.7ZM160.826 29.108H165.754L166.898 27.942V19.758L165.776 18.592H160.826V29.108ZM172.231 29.24H173.991V18.46H172.231V16.7H177.775V18.46H176.015V29.24H177.775V31H172.231V29.24ZM181.067 16.7H186.171V18.46H184.631V22.97H191.407V18.46H189.867V16.7H194.971V18.46H193.431V29.24H194.971V31H189.867V29.24H191.407V24.73H184.631V29.24H186.171V31H181.067V29.24H182.607V18.46H181.067V16.7ZM206.19 31V29.24H207.642L206.696 26.512H201.196L200.25 29.24H201.724V31H197.06V29.24H198.226L201.944 18.46H201.02V16.7H206.894V18.46H205.948L209.666 29.24H210.854V31H206.19ZM203.946 18.526L201.79 24.752H206.102L203.946 18.526ZM212.949 16.7H221.749L224.037 19.12V23.52L221.815 25.852L223.861 29.24H225.027V31H221.111V29.24H221.727L219.747 25.94H216.513V29.24H217.833V31H212.949V29.24H214.489V18.46H212.949V16.7ZM216.513 18.592V24.048H220.869L222.145 22.75V19.89L220.891 18.592H216.513Z" fill="black"></path></svg> 