<svg width="32" height="32" viewBox="0 0 32 32" fill="none" xmlns="http://www.w3.org/2000/svg">
<g clip-path="url(#clip0_3423_11402)">
<path d="M4.30006 -1.62572e-05C3.73426 -0.00399313 3.17332 0.104167 2.64983 0.31818C2.12633 0.532192 1.65072 0.847788 1.25063 1.24663C0.850555 1.64547 0.533974 2.1196 0.319294 2.64147C0.104615 3.16333 -0.00388312 3.72253 0.000106142 4.28656V27.6135C0.00487903 28.7582 0.456346 29.8562 1.25892 30.6748C2.0615 31.4936 3.15218 31.9687 4.30006 31.9998H27.6998C28.2655 32.0038 28.8265 31.8956 29.35 31.6816C29.8735 31.4675 30.3491 31.152 30.7492 30.7532C31.1492 30.3543 31.4658 29.8802 31.6805 29.3583C31.8952 28.8365 32.0037 28.2772 31.9997 27.7132V4.28656C32.0063 3.73018 31.9029 3.17794 31.6954 2.6614C31.4879 2.14485 31.1804 1.67411 30.7904 1.27605C30.4003 0.878001 29.9355 0.560432 29.4224 0.341483C28.9092 0.122532 28.3578 0.00649097 27.7998 -1.62572e-05H4.30006Z" fill="#1D1D1D"/>
<g opacity="0.05">
<path d="M8.60865 16.0873C8.57924 16.1143 8.54851 16.1439 8.51641 16.1763C7.68273 17.0177 2.03224 24.683 4.71854 27.3005C6.57546 29.1098 11.1323 27.2564 15.8803 23.5001C18.2333 25.5999 24.7769 29.6805 27.228 27.207C29.4204 24.9945 26.559 19.765 23.4484 15.9893C26.5589 12.2136 29.4202 6.98424 27.2278 4.77176C24.7544 2.27563 18.1134 6.45388 15.8168 8.53561C11.0918 4.85273 6.5673 2.99966 4.71868 4.86522C2.03238 7.57615 7.77551 15.148 8.51655 15.9893C8.54809 16.0252 8.57879 16.0577 8.60865 16.0873ZM8.14567 8.32406C8.14938 8.17833 8.15264 8.03813 8.15541 7.9033C9.51071 8.12741 11.4341 9.35004 13.3967 10.8825C12.3683 11.8719 11.2746 12.9254 10.5543 13.6524C10.5543 13.6991 10.5776 13.7461 10.6007 13.7928C9.14216 11.8618 8.10488 9.92974 8.14567 8.32406ZM10.5426 18.2207C11.009 18.6908 12.3384 20.0289 13.5626 21.2463C11.4416 22.9192 9.34897 24.2536 7.95036 24.3825C7.73484 23.9097 8.28569 21.1248 10.5426 18.2207ZM24.2163 24.1436C23.6765 24.3298 20.9652 23.7559 18.1396 21.5802C19.2268 20.5917 20.3032 19.5181 21.3385 18.3803C22.8941 20.3007 24.4237 22.5141 24.2163 24.1436ZM21.4723 13.7641C20.4556 12.6637 19.3977 11.6183 18.3277 10.6498C20.2645 9.15938 22.1969 8.09549 23.8006 8.13699C23.9745 8.14149 24.1405 8.14534 24.2988 8.14848C24.6511 9.84835 23.0655 11.9006 21.4723 13.7641ZM15.7567 12.8436C17.0774 13.9997 18.3146 15.1711 19.2931 16.1295C18.3135 17.0891 17.0745 18.2621 15.7521 19.4195C14.7138 18.4122 13.5703 17.2666 12.4924 16.0677C13.4737 15.0547 14.5879 13.9252 15.7567 12.8436Z" fill="white"/>
</g>
<path d="M25 8.99998L6.70711 8.99998L8.85355 11.1464L8.14645 11.8535L5.14645 8.85353C4.95118 8.65827 4.95118 8.34169 5.14645 8.14642L8.14645 5.14642L8.85355 5.85353L6.70711 7.99998L25 7.99998V8.99998Z" fill="white"/>
<path d="M13.7894 20.05C13.5094 20.05 13.2827 19.97 13.1094 19.81C12.9427 19.6433 12.8594 19.4233 12.8594 19.15V14.44H11.4494C11.1561 14.44 10.9361 14.38 10.7894 14.26C10.6494 14.1333 10.5794 13.9433 10.5794 13.69C10.5794 13.4366 10.6494 13.25 10.7894 13.13C10.9361 13.01 11.1561 12.95 11.4494 12.95H16.1294C16.4227 12.95 16.6394 13.01 16.7794 13.13C16.9261 13.25 16.9994 13.4366 16.9994 13.69C16.9994 13.9433 16.9261 14.1333 16.7794 14.26C16.6394 14.38 16.4227 14.44 16.1294 14.44H14.7194V19.15C14.7194 19.4233 14.6327 19.6433 14.4594 19.81C14.2927 19.97 14.0694 20.05 13.7894 20.05Z" fill="white"/>
<path d="M19.1598 20.035C18.9638 20.035 18.8051 19.979 18.6838 19.867C18.5671 19.7503 18.5088 19.5963 18.5088 19.405V16.108H17.5218C17.3164 16.108 17.1624 16.066 17.0598 15.982C16.9618 15.8933 16.9128 15.7603 16.9128 15.583C16.9128 15.4056 16.9618 15.275 17.0598 15.191C17.1624 15.107 17.3164 15.065 17.5218 15.065H20.7978C21.0031 15.065 21.1548 15.107 21.2528 15.191C21.3554 15.275 21.4068 15.4056 21.4068 15.583C21.4068 15.7603 21.3554 15.8933 21.2528 15.982C21.1548 16.066 21.0031 16.108 20.7978 16.108H19.8108V19.405C19.8108 19.5963 19.7501 19.7503 19.6288 19.867C19.5121 19.979 19.3558 20.035 19.1598 20.035Z" fill="white"/>
<path d="M25.2929 24H7V23H25.2929L23.1464 20.8535L23.8536 20.1464L26.8536 23.1464C27.0488 23.3417 27.0488 23.6583 26.8536 23.8535L23.8536 26.8535L23.1464 26.1464L25.2929 24Z" fill="white"/>
</g>
<defs>
<clipPath id="clip0_3423_11402">
<rect width="32" height="32" fill="white"/>
</clipPath>
</defs>
</svg>
