<svg width="32" height="32" viewBox="0 0 32 32" fill="none" xmlns="http://www.w3.org/2000/svg">
<g clip-path="url(#clip0_3423_11392)">
<path d="M4.30006 -1.62572e-05C3.73426 -0.00399313 3.17332 0.104167 2.64983 0.31818C2.12633 0.532192 1.65072 0.847788 1.25063 1.24663C0.850555 1.64547 0.533974 2.1196 0.319294 2.64147C0.104615 3.16333 -0.00388312 3.72253 0.000106142 4.28656V27.6135C0.00487903 28.7582 0.456346 29.8562 1.25892 30.6748C2.0615 31.4936 3.15218 31.9687 4.30006 31.9998H27.6998C28.2655 32.0038 28.8265 31.8956 29.35 31.6816C29.8735 31.4675 30.3491 31.152 30.7492 30.7532C31.1492 30.3543 31.4658 29.8802 31.6805 29.3583C31.8952 28.8365 32.0037 28.2772 31.9997 27.7132V4.28656C32.0063 3.73018 31.9029 3.17794 31.6954 2.6614C31.4879 2.14485 31.1804 1.67411 30.7904 1.27605C30.4003 0.878001 29.9355 0.560432 29.4224 0.341483C28.9092 0.122532 28.3578 0.00649097 27.7998 -1.62572e-05H4.30006Z" fill="#1D1D1D"/>
<g opacity="0.05">
<path d="M8.60865 16.0873C8.57924 16.1143 8.54851 16.1439 8.51641 16.1763C7.68273 17.0177 2.03224 24.683 4.71854 27.3005C6.57546 29.1098 11.1323 27.2564 15.8803 23.5001C18.2333 25.5999 24.7769 29.6805 27.228 27.207C29.4204 24.9945 26.559 19.765 23.4484 15.9893C26.5589 12.2136 29.4202 6.98424 27.2278 4.77176C24.7544 2.27563 18.1134 6.45388 15.8168 8.53561C11.0918 4.85273 6.5673 2.99966 4.71868 4.86522C2.03238 7.57615 7.77551 15.148 8.51655 15.9893C8.54809 16.0252 8.57879 16.0577 8.60865 16.0873ZM8.14567 8.32406C8.14938 8.17833 8.15264 8.03813 8.15541 7.9033C9.51071 8.12741 11.4341 9.35004 13.3967 10.8825C12.3683 11.8719 11.2746 12.9254 10.5543 13.6524C10.5543 13.6991 10.5776 13.7461 10.6007 13.7928C9.14216 11.8618 8.10488 9.92974 8.14567 8.32406ZM10.5426 18.2207C11.009 18.6908 12.3384 20.0289 13.5626 21.2463C11.4416 22.9192 9.34897 24.2536 7.95036 24.3825C7.73484 23.9097 8.28569 21.1248 10.5426 18.2207ZM24.2163 24.1436C23.6765 24.3298 20.9652 23.7559 18.1396 21.5802C19.2268 20.5917 20.3032 19.5181 21.3385 18.3803C22.8941 20.3007 24.4237 22.5141 24.2163 24.1436ZM21.4723 13.7641C20.4556 12.6637 19.3977 11.6183 18.3277 10.6498C20.2645 9.15938 22.1969 8.09549 23.8006 8.13699C23.9745 8.14149 24.1405 8.14534 24.2988 8.14848C24.6511 9.84835 23.0655 11.9006 21.4723 13.7641ZM15.7567 12.8436C17.0774 13.9997 18.3146 15.1711 19.2931 16.1295C18.3135 17.0891 17.0745 18.2621 15.7521 19.4195C14.7138 18.4122 13.5703 17.2666 12.4924 16.0677C13.4737 15.0547 14.5879 13.9252 15.7567 12.8436Z" fill="white"/>
</g>
<path fill-rule="evenodd" clip-rule="evenodd" d="M12.9068 11.9375C12.1972 12.5205 11.5944 13.1245 11.0903 13.7399C6.46009 19.3922 10.1582 26 15.982 26C22.4399 26 24.0006 19.9298 22.4399 16C21.766 14.303 20.6705 12.9061 19.6185 11.5647C18.6622 10.3452 17.7418 9.17148 17.2065 7.85967C16.9671 7.2729 16.8048 6.6585 16.7508 6C16.2468 6.57623 15.8557 7.14069 15.5567 7.69046C14.1056 10.3589 14.8247 12.6811 15.3327 14.3213C15.7416 15.6419 16.0137 16.5203 14.9056 16.7812C13.9701 17.0016 12.6788 16.3445 12.5876 14.2986C12.5589 13.6545 12.6491 12.8728 12.9068 11.9375ZM10.7446 20.7487C10.3216 19.3924 10.4 17.6926 11.3866 15.9425C11.4896 16.2257 11.6188 16.4902 11.774 16.7353C12.5931 18.0289 14.0059 18.5342 15.2495 18.2413C15.8334 18.1038 16.4799 17.7915 16.8732 17.1177C17.2378 16.4931 17.2139 15.8377 17.156 15.411C17.0966 14.9729 16.9605 14.5127 16.8428 14.1279C16.8154 14.0384 16.7881 13.9502 16.761 13.8627C16.6604 13.5377 16.5625 13.2214 16.4722 12.876C16.2483 12.0202 16.1146 11.1334 16.2586 10.1931C16.2882 9.99984 16.3303 9.79974 16.388 9.59301C16.8546 10.4168 17.4074 11.1617 17.938 11.8491C18.1117 12.0742 18.2837 12.294 18.4528 12.5102C19.5101 13.8618 20.458 15.0734 21.0458 16.5536C21.6832 18.1586 21.6706 20.211 20.8757 21.804C20.1322 23.294 18.6535 24.5 15.982 24.5C13.4155 24.5 11.4159 22.9014 10.7446 20.7487Z" fill="white"/>
</g>
<defs>
<clipPath id="clip0_3423_11392">
<rect width="32" height="32" fill="white"/>
</clipPath>
</defs>
</svg>
